<?xml version="1.0" encoding="utf-8"?>
<!-- Generator: Adobe Illustrator 18.1.1, SVG Export Plug-In . SVG Version: 6.00 Build 0)  -->
<svg version="1.1" id="Layer_1" xmlns="http://www.w3.org/2000/svg" xmlns:xlink="http://www.w3.org/1999/xlink" x="0px" y="0px"
	 viewBox="0 0 200 200" enable-background="new 0 0 200 200" xml:space="preserve">
<g>
	<path fill="#FFFFFF" d="M170.7,149.2c-1.6-2.9-4.4-5-7.7-5.6c-6.2-1.2-13.7-1.4-19-1.3h-0.1c-2.7,0-5-2.1-5.2-4.8v-0.1
		c-0.5-2.7,5-6.1,9-7.4c0.3-0.1,0.7-0.2,1-0.3c2.3-0.7,4.8-1.5,6.3-3.2c5.9-6.5,4.6-27.9,2.5-46.5c0.3-0.5,0.3-1.1,0-1.6
		c-0.1-0.1-0.1-0.2-0.2-0.2l0,0c-0.1-1.2-0.4-2.3-0.8-3.4c-1.9-5.2-5.6-10.5-9.2-15.6c-3.8-5.5-7.5-10.7-7.5-14.1
		c0-5.4-0.3-11.6-2.8-16.4c-0.4-0.9-0.8-1.8-1-2.7c0-0.2,0-0.4-0.1-0.6c-0.1-0.8-0.2-1.7-0.1-2.5c0.5-4.4-2.7-9.6-5.9-11.6
		c-4-2.4-10.2-0.9-10.4-0.9c0,0,0,0-0.1,0s-0.1,0-0.2,0.1c0,0-0.1,0-0.1,0.1l-0.1,0.1l-0.1,0.1l-0.1,0.1l-0.1,0.1l-0.1,0.1
		c0,0,0,0.1-0.1,0.1c0,0,0,0.1-0.1,0.1v0.1c0,0,0,0.1,0,0.2v0.1c0,0.1,0,0.1,0,0.2V12c0,0,0,0,0,0.1l1.3,10.3
		c-2.2-0.2-4.3-0.3-6.2-0.4c-1.9-0.1-3.6-0.2-5.1-0.2v-0.1c-0.6-7-5.5-10.1-9.7-10c-4,0.1-8.4,3.2-8.6,9.7c0,0.1,0,0.3,0.1,0.4
		c-1.2,0-2.6,0.1-4.1,0.2c-2.4,0.1-5.1,0.3-7.8,0.5l1.2-10.2c0-0.2,0-0.5-0.1-0.7c0-0.1,0.1-0.2,0.1-0.3c0.1-0.8-0.4-1.6-1.3-1.7
		c-0.2,0-5.2-0.7-9.1,1.6c-3.2,1.9-6.5,7.2-5.9,11.6c0.1,0.8,0.1,1.6-0.1,2.5C63,25.5,63,25.7,63,25.9c-0.2,0.9-0.5,1.8-1,2.7
		c-2.5,4.9-2.8,11.1-2.8,16.4c0,3.7-3.2,9.4-6.6,15.4c-2.7,4.7-5.5,9.6-7.2,14.4c-0.4,1.1-0.7,2.2-0.8,3.4v0.1
		c-0.1,0.1-0.2,0.2-0.2,0.3c-0.3,0.5-0.3,1.1,0,1.5l-0.1,0.7c-2.3,20.2-4,40.5,2.8,46c2.1,1.7,4,2.5,5.5,3.1
		c0.6,0.2,1.2,0.5,1.6,0.7c2.6,1.4,6.4,5,6.2,7.2c-0.2,2.7-2.6,4.8-5.3,4.8c-5.2-0.1-12.8,0-19,1.3c-3.3,0.6-6.1,2.7-7.7,5.6
		c-4.1,7.5-4,13.9,0.3,20.1c2.4,3.4,8.9,3.2,15.8,3c3-0.1,6.1-0.2,8.6,0c0.3,0,0.7,0.1,1,0.2c0.1,0.1,0.3,0.2,0.5,0.2l0,0
		c1.5,0.8,2.5,2.4,2.4,4.3c-0.3,5.1,1.3,8.8,4.7,10.7c4.4,2.5,17.5,3.1,27.2,3.1c5.5,0,9.8-0.2,11-0.2c0.1,0,0.2,0,0.3-0.1
		c1.8,0.1,6,0.2,10.9,0.2c9.5,0,22-0.5,26.3-3c3.3-1.9,4.9-5.6,4.7-10.7c-0.1-1.9,0.9-3.5,2.4-4.3l0,0c0.2,0,0.3-0.1,0.5-0.2
		c0.3-0.1,0.6-0.2,1-0.2c2.5-0.2,5.6-0.1,8.6,0c6.9,0.2,13.4,0.4,15.8-3C174.8,163.1,174.9,156.7,170.7,149.2z M152.9,124.4
		c-1,1.1-3.1,1.8-5,2.4c-0.4,0.1-0.7,0.2-1.1,0.3c-1.2,0.4-3,1.2-4.8,2.2l0,0c-1.4-2.5-3.6-19.5-4-36.3c1.9-1.4,12.1-8.1,16.8-11.1
		C156.1,93.9,158.3,118.5,152.9,124.4z M153.8,75.7c0.3,0.8,0.5,1.7,0.6,2.7c0,0.1,0,0.1,0,0.2c-3.2,2-12.3,8-16.5,10.8
		c0-13.9,1.4-27,5.8-30.5c0.4,0.6,0.8,1.2,1.3,1.8C148.4,65.7,152,70.8,153.8,75.7z M142,56.4c-12.4,9.6-5.4,69.5-2.7,74.3
		c0,0.1,0.1,0.1,0.1,0.2c-2.4,1.9-4.2,4.2-3.8,6.9c0.2,1.6,0.8,3.1,1.7,4.3c-1.3,0.2-2.7,0.4-4.2,0.5c0.2-14.6-0.4-30-1.3-43.4
		c-2-31.7-6.1-62.6-8.5-73.7c3.8,0.3,7.3,0.8,9.9,1.4c0.3,1,0.6,1.9,1.1,2.8c2.2,4.3,2.5,10,2.5,15.1C137,48.2,139.1,52,142,56.4z
		 M121.7,13c1.9-0.3,4.9-0.4,6.9,0.8c2.4,1.4,4.9,5.6,4.5,8.6c-0.1,0.5-0.1,1-0.1,1.5c-2.9-0.6-6.4-1-10.1-1.3L121.7,13z M93.2,21.4
		c0.1-4.6,3-6.7,5.7-6.8c2.8-0.1,6.1,2.1,6.6,7c-2.8-0.1-4.5-0.1-5.4,0c-1.1-0.1-3.2-0.1-6.9,0C93.1,21.5,93.2,21.5,93.2,21.4z
		 M99.7,24.5C99.8,24.5,99.8,24.5,99.7,24.5c0.2,0,0.3,0,0.4,0s0.2,0,0.2,0s0,0,0.1,0c2.5,0,11.4,0.2,19.9,0.8
		c3.4,14.6,10.5,72.8,9.9,117.7c-12.8,1.1-31,1.6-31.7,1.6s-17.2-0.5-29.4-1.6c-0.2-12.5,0.3-26.9,1.3-43.2
		c2.1-32.7,6.1-63.7,7.5-74.4C87,24.7,97,24.5,99.7,24.5z M99.7,173.1c-0.1,0-0.2,0-0.3-0.1c-0.2,0-15.5-0.5-28.4-1.5
		c-1-7.1-1.6-15.7-1.8-25.5c12.3,1.1,28.4,1.5,29.3,1.6l0,0l0,0l0,0l0,0l0,0l0,0c1,0,18.7-0.5,31.6-1.6c-0.2,9.4-0.8,18.1-1.9,25.6
		C116.8,172.4,103.4,172.9,99.7,173.1z M70.7,13.7c1.9-1.2,4.3-1.3,5.8-1.3l-1.2,10.2c-3.3,0.3-6.5,0.7-9,1.2c0-0.5,0-1-0.1-1.5
		C65.8,19.3,68.3,15.1,70.7,13.7z M48.2,75.7c1.7-4.5,4.4-9.3,7-13.9c0.8-1.4,1.5-2.7,2.2-3.9c1.3,1,2.4,3,3.3,5.8
		c1.8,6,2.2,14.7,1.9,23.9c-1.2-1-2.8-2-15-9.1v-0.1C47.7,77.4,47.9,76.5,48.2,75.7z M53.7,126.8c-1.4-0.6-3-1.2-4.8-2.6
		c-5.9-4.8-3.2-29.7-1.8-42.4c12.2,7.1,12.7,7.5,13.9,8.5c0.3,0.3,0.7,0.6,1.3,1.1l0,0c-0.9,16.3-3.9,33-5.4,37.2
		c-0.5-0.3-1-0.6-1.4-0.8C55,127.4,54.4,127.1,53.7,126.8z M59.5,130.4c2.8-6.1,9.6-49.3,4.1-67.6c-1.1-3.7-2.7-6.2-4.7-7.6
		c2-3.9,3.4-7.3,3.4-10.2c0-5,0.3-10.8,2.5-15.1c0.5-0.9,0.8-1.9,1.1-2.8c2.4-0.6,5.6-1,9.1-1.3c-2.4,17.8-9.3,73.4-8.8,117.1
		c-1.6-0.2-3.1-0.3-4.4-0.5c1-1.2,1.6-2.7,1.8-4.4C63.7,135.1,61.7,132.4,59.5,130.4z M31,150.8c0.8,4.9,0.8,13.4,0.2,16.8l0,0
		C27.6,162.4,27.5,157.2,31,150.8z M44.5,169.3c-3.8,0.1-7.8,0.3-10.5-0.3c1.1-4.7,0.8-16.2-0.5-21c1-0.7,2.1-1.2,3.3-1.4
		c6-1.2,13.3-1.3,18.3-1.2c1.2,0,2.3-0.2,3.3-0.7c1.9,0.4,4.6,0.8,7.7,1.1c0.2,9.3,0.7,18,1.7,25.6c-5.1-0.4-9.6-0.9-12.2-1.5
		c-0.7-0.3-1.4-0.5-2.2-0.5C50.8,169.1,47.6,169.2,44.5,169.3z M60.1,177.1c0.1-1.3-0.2-2.6-0.7-3.7c2.6,0.3,5.7,0.6,9,0.9
		c0.8,4.8,1.7,9,2.9,12.6c-3.6-0.4-6.5-1-8-1.9C60.9,183.8,59.9,181.1,60.1,177.1z M99.6,187.5c-0.2,0-0.5,0-0.7,0.1
		c-5.6,0.2-16,0.3-24.4-0.3c-1.3-3.4-2.3-7.6-3.1-12.7c10.9,0.8,23.1,1.2,26.8,1.4c0.2,0.1,0.4,0.1,0.6,0.1c0,0,0,0,0.1,0
		c1,0,16-0.6,29-1.5c-0.8,4.9-1.9,9.2-3.2,12.7C115.9,187.9,104.9,187.7,99.6,187.5z M139.1,177.1c0.2,3.9-0.8,6.6-3.2,8
		c-1.5,0.9-4.4,1.4-8,1.8c1.2-3.6,2.2-7.9,3-12.6c3.3-0.3,6.4-0.6,8.9-0.9C139.3,174.6,139,175.8,139.1,177.1z M154.7,169.3
		c-3.1-0.1-6.3-0.2-9,0c-0.8,0.1-1.5,0.3-2.2,0.5c-2.6,0.5-7.1,1-12.2,1.5c1.1-7.7,1.6-16.5,1.8-25.6c3-0.3,5.7-0.7,7.5-1
		c1,0.4,2.1,0.7,3.2,0.7h0.1c5.1-0.1,12.4,0,18.3,1.2c1.2,0.2,2.3,0.7,3.3,1.4c-1.2,4.8-1.6,16.3-0.5,21
		C162.5,169.5,158.4,169.4,154.7,169.3z M167.9,167.6L167.9,167.6c-0.6-3.4-0.6-11.9,0.2-16.8C171.7,157.2,171.6,162.4,167.9,167.6z
		"/>
	<path fill="#FFFFFF" d="M99,55.6c-8.2,0.8-22.8,5.1-22.8,16.4c0,2.7-0.2,7.7-0.5,13.7c0,0.1,0,0.2,0,0.3c0,0.7-0.1,1.4-0.1,2.1
		c-0.5,12.8-1.2,28.6-0.9,38c0.2,5,4.1,8.9,9.1,9.2c6.8,0.3,12.2,0.6,14.7,0.7c0.1,0,0.3,0.1,0.4,0.1c0,0,0,0,0.1,0c0,0,0.2,0,0.6,0
		s0.6,0,0.6,0s0,0,0.1,0s0.3,0,0.4-0.1c2.6-0.1,7.9-0.3,14.7-0.7c5-0.2,8.9-4.2,9.1-9.2c0.4-9.4-0.3-25.2-0.9-38
		c0-0.7-0.1-1.4-0.1-2.1c0-0.1,0-0.2,0-0.3c-0.3-5.9-0.5-11-0.5-13.7c0-8.3-7.7-13.8-22.8-16.4c-0.2-0.1-0.5-0.1-0.7-0.1
		c0,0,0,0-0.1,0C99.3,55.6,99.2,55.6,99,55.6z M121.5,126c-0.1,3.4-2.8,6.1-6.2,6.3c-7.8,0.4-13.7,0.6-15.6,0.7
		c-2-0.1-7.9-0.3-15.6-0.7c-3.4-0.2-6.1-2.9-6.2-6.3c-0.4-9.2,0.3-25.1,0.9-37.8c0-0.5,0-0.9,0.1-1.3c3-1.4,13.7-6.4,20.9-6.9
		c7.2,0.6,18,5.5,20.9,6.9c0,0.4,0,0.9,0.1,1.3C121.1,101,121.8,116.8,121.5,126z M120,72.1c0,2.4,0.2,6.5,0.4,11.4
		c-4.1-1.9-12.7-5.6-19.5-6.4c-0.2-0.1-0.4-0.2-0.7-0.2c-0.2,0-0.4,0-0.6,0s-0.4,0-0.6,0c-0.3,0-0.5,0.1-0.7,0.2
		c-6.8,0.8-15.4,4.5-19.5,6.4c0.2-4.9,0.4-9,0.4-11.4c0-9.2,13-12.8,20.2-13.5C113.1,60.9,120,65.4,120,72.1z"/>
</g>
</svg>
