<?xml version="1.0" encoding="utf-8"?>
<!-- Generator: Adobe Illustrator 18.1.1, SVG Export Plug-In . SVG Version: 6.00 Build 0)  -->
<svg version="1.1" id="Layer_1" xmlns="http://www.w3.org/2000/svg" xmlns:xlink="http://www.w3.org/1999/xlink" x="0px" y="0px"
	 viewBox="0 0 200 200" enable-background="new 0 0 200 200" xml:space="preserve">
<path fill="#FFFFFF" d="M199.5,90.7c-0.1-2-0.4-4.6-1.8-5.6c-0.5-0.4-1.2-0.5-3.5-0.5c-7.4,0-27.1,2-28,2c-0.6,0.1-1.2,0.1-1.9,0.1
	c-8.6,0-26-4-32.6-5.8c-1.6-0.4-3.8-0.7-6.5-0.7c-10.4,0-26.4,3.2-32.2,4.8c-1,0.3-2.5,0.4-4.5,0.4c-5.6,0-13.9-1.2-21.1-2.2
	c-5.7-0.8-10.7-1.5-13.6-1.6h-0.2c-9.9,0-42.9,11.1-51.5,18.2c-1,0.8-1.5,2-1.4,3.3l0.2,3.7c0.1,1.4,0.8,2.6,1.9,3.2
	c0.8,0.5,1.8,0.9,2.8,1.4l0,0l0,0c11.1,4.7,35.6,8.8,46.5,8.8c1.4,0,2.5-0.1,3.4-0.2c2.9-0.4,7.9-1.8,13.5-3.3
	c8.4-2.3,18.8-5.1,23.9-5.1c0.4,0,0.8,0,1.1,0.1c3.1,0.4,8.3,0.6,13.8,0.6c6.2,0,21.2-0.3,27.7-3.1c0.8-0.3,1.7-0.8,2.8-1.2
	c7.4-3.3,21.2-9.4,27.7-9.4h0.2h0.1c30.9-2,31.6-2.6,32.1-3C199.2,94.9,199.5,93.3,199.5,90.7z M47.1,105l-0.3-5.5l4.1-0.3l0.1,5.5
	L47.1,105z M54.1,104.5L54,99l2.4-0.2l0.3,5.5L54.1,104.5z M59.7,104l-0.3-5.5l3-0.2l0.2,5.5L59.7,104z M65.6,103.5L65.4,98l3.8-0.3
	l0.3,5.4L65.6,103.5z M72.5,103l-0.3-5.4l1-0.1l0.3,5.4L72.5,103z M76.5,102.6l-0.3-5.4l4.6-0.4l0.4,5.4L76.5,102.6z M84.2,102
	l-0.4-5.4l6.2-0.5l0.3,5.4L84.2,102z M93.3,101.3L93,95.9l1.3-0.1l0.3,5.4L93.3,101.3z M97.5,100.9l-0.3-5.4l2.5-0.2l0.2,5.4
	L97.5,100.9z M102.9,100.5l-0.2-5.4l2.2-0.2l0.2,5.4L102.9,100.5z M108.2,100.1l-0.2-5.4l8.7-0.7l0.2,5.4L108.2,100.1z M119.9,99.1
	l-0.2-5.4l9.7-0.8l0.2,5.3L119.9,99.1z M132.5,98.1l-0.2-5.3l4.1-0.3l0.3,5.3L132.5,98.1z M139.7,97.5l-0.3-5.3l12-1l0.1,5.3
	L139.7,97.5z M154.4,96.3l-0.1-5.3l14-1.1l0.4,5.3L154.4,96.3z M53.5,84.6c2.7,0,7.8,0.8,13.2,1.5c7.4,1.1,15.7,2.2,21.5,2.2
	c2.3,0,4-0.2,5.3-0.5c5.7-1.6,21.3-4.7,31.4-4.7c2.5,0,4.4,0.2,5.8,0.6c4.1,1.1,12.4,3.1,20.2,4.5L7.5,99.7
	C18.9,93.1,45.2,84.6,53.5,84.6L53.5,84.6z M3.7,106.7L3.5,103l40.4-3.2l0.3,5.5L6,108.4c-0.7-0.3-1.3-0.6-1.9-0.9
	C3.9,107.3,3.7,107,3.7,106.7z M137.1,105.2c-1.1,0.5-2,0.9-2.8,1.2c-4.2,1.8-14.1,2.9-26.5,2.9c-5.3,0-10.5-0.2-13.4-0.5
	c-5-0.6-16.3,2.5-26.2,5.1c-5.4,1.5-10.4,2.8-13.2,3.2c-0.8,0.1-1.8,0.2-3,0.2c-8.7,0-27.2-2.9-39.2-6.4l137.5-11.2
	C145.4,101.5,140.5,103.7,137.1,105.2z M196.4,93.1c-2.8,0.5-14.7,1.4-24.6,2l-0.4-6.1c6.5-0.6,17.8-1.6,22.8-1.6c1,0,1.5,0,1.8,0.1
	C196.5,88.6,196.6,91.8,196.4,93.1z"/>
</svg>
