<?xml version="1.0" encoding="utf-8"?>
<!-- Generator: Adobe Illustrator 18.1.1, SVG Export Plug-In . SVG Version: 6.00 Build 0)  -->
<svg version="1.1" id="Layer_1" xmlns="http://www.w3.org/2000/svg" xmlns:xlink="http://www.w3.org/1999/xlink" x="0px" y="0px"
	 viewBox="0 0 200 200" enable-background="new 0 0 200 200" xml:space="preserve">
<g>
	<path fill="#FFFFFF" d="M190.1,112.2c-9.2-10.3-27.2-17.5-43.2-17.4c-0.2-7.3-0.8-26.4-3.3-34.3c-2.5-8-30.2-21.1-49.5-19
		C88.9,42.1,80.5,45,72.5,49c-5.3,2.6-14.7,7.9-17.7,13.4c-4.1,7.5-3.7,24.2-3.4,34.2c0,0.2,0,0.4,0,0.6c-0.7,0.2-1.7,0.4-2.8,0.7
		c-20.1,5-43.3,12.1-44.2,23.3c-0.4,4.7,1.6,9.5,5.9,14c14,14.8,48.3,23.9,88.7,23.9c2.6,0,5.2,0,7.8-0.1
		c62.2-1.8,86.6-18.3,88.7-33.1C196.1,121.6,194.2,116.8,190.1,112.2z M143.7,117.6c-2.5,2.9-5,5.9-40.5,8.6
		c-38.8,2.9-48.3-9.3-48.3-9.4c-0.3-0.7-0.6-3.6-0.5-13.4c9.4,4.4,27.4,6.4,43,6.4c0.9,0,1.8,0,2.7,0c8-0.1,33.3-1.1,44-8.9
		C144.6,108.5,144.6,116.4,143.7,117.6z M57.5,63.8c4.3-7.8,27.1-18.2,37-19.2c18.5-2,44.4,10.7,46.3,16.9
		c2.7,8.4,3.1,31.7,3.2,35.7c-12.3,12.3-72.8,12.3-89.5,2.9c0-1,0-2.2-0.1-3.6C54.2,87.4,53.8,70.5,57.5,63.8z M192.5,125.5
		c-1.8,13-25.4,28.8-85.8,30.5c-35.2,1-77.9-5.7-94.3-22.9c-3.7-3.9-5.4-7.8-5.1-11.7c0.9-10.4,31.8-18.1,42-20.6
		c0.8-0.2,1.5-0.4,2.1-0.5c0,0.1,0,0.3,0,0.4l0,0c0,0.3,0,0.8,0,1.5c-0.2,10,0.1,14.5,0.8,16c0.1,0.1,7.4,11.6,39.4,11.6
		c3.6,0,7.6-0.1,11.8-0.5c36.7-2.8,39.5-6.1,42.5-9.7c2.2-2.6,1.4-15.9,1-21.7c15,0,32.3,6.9,40.9,16.4
		C191.4,118.2,193,122,192.5,125.5z"/>
	<path fill="#FFFFFF" d="M135.5,76.7c0.1,0,0.1,0,0.2,0c0.8-0.1,1.4-0.8,1.4-1.6c-0.1-0.8-0.8-1.4-1.6-1.4l0,0
		c-0.8,0-4.7-1.7-13.7-8c-6.8-4.8-11.7-8.9-12.4-9.8c-0.3-0.7-1.1-1-1.9-0.8c-0.8,0.3-1.2,1.1-0.9,1.9
		C107.4,59.3,130.4,76.7,135.5,76.7z"/>
	<path fill="#FFFFFF" d="M62.9,76.7c0.1,0,0.1,0,0.2,0c5,0,28.1-17.4,28.9-19.7c0.3-0.8-0.1-1.6-0.9-1.9c-0.7-0.3-1.5,0.1-1.9,0.8
		c-0.7,0.9-5.6,5-12.4,9.8c-9,6.4-12.9,8-13.6,8l0,0c-0.8-0.1-1.6,0.5-1.6,1.4C61.4,75.9,62,76.6,62.9,76.7z"/>
</g>
</svg>
