<?xml version="1.0" encoding="utf-8"?>
<!-- Generator: Adobe Illustrator 18.1.1, SVG Export Plug-In . SVG Version: 6.00 Build 0)  -->
<svg version="1.1" id="Layer_1" xmlns="http://www.w3.org/2000/svg" xmlns:xlink="http://www.w3.org/1999/xlink" x="0px" y="0px"
	 viewBox="0 0 200 200" enable-background="new 0 0 200 200" xml:space="preserve">
<path fill="#FFFFFF" d="M193,26.3c-0.6-0.7-1.5-1.1-2.4-1.1l-31.3-1.6l-23-3.6h-0.1l-33.7,1.3l-29.3-3h-0.1l-29.8,2.6H9
	c-0.9,0-1.8,0.4-2.5,1.1c-0.6,0.7-1,1.6-0.9,2.5L16.9,174c0.1,1.9,1.9,3.3,3.8,3.1l29.7-4.3l26.6,9.3l24.8-10.3l29.8,6.6l18.8-11.9
	l26,6.3c0.3,0.1,0.5,0.1,0.8,0.1c1.7,0,3.2-1.3,3.3-3l13.2-141.2C193.9,27.9,193.6,26.9,193,26.3z M148.8,164.1l-15.8,10l2-69.7
	l17.2-3.2L148.8,164.1z M49.3,103.7l24.4,2.9l1.8,71.7L52,170.2L49.3,103.7z M132.1,101.7l-28.1-1.5l0.9-76.1l29.5-1.2L132.1,101.7z
	 M101,100.3l-24.4,3.2l-2-82.1l27.3,2.8L101,100.3z M73.6,103.6l-24.4-2.9L46,24.2c0-0.2,0-0.4,0-0.6l25.6-2.3L73.6,103.6z
	 M76.7,106.5l24.3-3.2l-0.7,66l-21.8,9L76.7,106.5z M104,103.2l28.1,1.5l-2,70.3l-26.7-5.9L104,103.2z M152.4,98.1l-17.3,3.2
	l2.3-78.2l19,3L152.4,98.1z M8.7,24c0-0.1,0.1-0.1,0.3-0.1h34c0.3,6.9,1.8,42.2,3.2,76.6l-31.5,3.2l-6-79.4
	C8.6,24.2,8.7,24.1,8.7,24z M20.2,174.1c-0.2,0-0.3-0.1-0.3-0.3l-5.1-67.1l31.4-3.2c1.3,30.7,2.5,59.9,2.7,66.4L20.2,174.1z
	 M177.7,169.7c0,0.2-0.2,0.3-0.4,0.3l-25.4-6.1l3.4-62.5l28.6,2.3L177.7,169.7z M184.1,100.7l-28.7-2.3l4-71.8l31.1,1.5
	c0.1,0,0.2,0.1,0.2,0.1c0,0.1,0.1,0.1,0.1,0.3L184.1,100.7z"/>
</svg>
