<?xml version="1.0" encoding="utf-8"?>
<!-- Generator: Adobe Illustrator 18.1.1, SVG Export Plug-In . SVG Version: 6.00 Build 0)  -->
<svg version="1.1" id="Layer_1" xmlns="http://www.w3.org/2000/svg" xmlns:xlink="http://www.w3.org/1999/xlink" x="0px" y="0px"
	 viewBox="0 0 94 61.1" enable-background="new 0 0 94 61.1" xml:space="preserve">
<g>
	<g>
		<path fill="#3B4E35" d="M31.8,58.8C15.9,58.8,3,46.3,3,30.9C3,15.5,15.9,2.9,31.8,2.9s28.7,12.5,28.7,27.9
			C60.5,46.3,47.6,58.8,31.8,58.8z M31.8,6.7C18,6.7,6.8,17.5,6.8,30.9S18,55,31.8,55c13.8,0,24.9-10.8,24.9-24.1S45.5,6.7,31.8,6.7
			z"/>
	</g>
	<g>
		<polygon fill="#3B4E35" points="32.2,20.5 47.3,38.2 51.2,38.2 32.3,15.3 12.4,38.2 16,38.2 		"/>
		<polygon fill="#3B4E35" points="20.4,38.2 24.6,38.2 32,30.2 38.8,38.2 43.4,38.2 32.1,24.9 		"/>
	</g>
</g>
<g>
	<path fill="#3B4E35" d="M73.6,30.5l-0.2-0.7h-0.1v8.3h-2V23.5h1.9l2.1,7.7l0.2,0.7h0.1v-8.3h2v14.7h-1.9L73.6,30.5z"/>
	<path fill="#3B4E35" d="M79.6,23.5h2.2c0.9,0,1.9,0.2,2.6,0.9c0.7,0.7,1.2,1.8,1.2,3.5c0,1.7-0.5,2.8-1.2,3.5c-0.7,0.7-1.7,1-2.6,1
		v5.9h-2.2V23.5z M81.7,30.1c0.7,0,1.1-0.1,1.3-0.5c0.2-0.3,0.3-0.9,0.3-1.7c0-0.8-0.1-1.4-0.3-1.8c-0.2-0.4-0.7-0.5-1.3-0.5V30.1z"
		/>
	<path fill="#3B4E35" d="M90.5,27.4c0-0.5,0-1-0.2-1.4c-0.1-0.4-0.4-0.7-0.7-0.7c-0.6,0-0.7,0.6-0.7,1.5c0,0.5,0.2,1,0.5,1.6
		c0.3,0.6,0.7,1.1,1.2,1.8c0.5,0.7,1,1.5,1.4,2.2c0.4,0.7,0.6,1.5,0.6,2.3c0,1-0.2,1.9-0.6,2.6c-0.5,0.7-1.2,1.1-2.4,1.1
		c-1.4,0-2.2-0.5-2.6-1.3c-0.4-0.8-0.5-1.9-0.5-3l2.1-0.2c0,0.6,0,1.2,0.2,1.7c0.1,0.5,0.4,0.8,0.8,0.8c0.6,0,0.9-0.7,0.9-1.6
		c0-0.5-0.2-1-0.6-1.6c-0.2-0.3-0.4-0.6-0.6-0.9c-0.4-0.6-0.9-1.3-1.4-2s-0.8-1.5-1.1-2.3c-0.1-0.4-0.2-0.8-0.2-1.2
		c0-0.8,0.2-1.7,0.6-2.3c0.5-0.6,1.2-1.1,2.2-1.1c1.3,0,2.1,0.5,2.5,1.3c0.4,0.8,0.5,1.8,0.5,2.6L90.5,27.4z"/>
</g>
</svg>
