<?xml version="1.0" encoding="utf-8"?>
<!-- Generator: Adobe Illustrator 18.1.1, SVG Export Plug-In . SVG Version: 6.00 Build 0)  -->
<svg version="1.1" id="Layer_1" xmlns="http://www.w3.org/2000/svg" xmlns:xlink="http://www.w3.org/1999/xlink" x="0px" y="0px"
	 viewBox="0 0 205.8 58" enable-background="new 0 0 205.8 58" xml:space="preserve">
<g>
	<g>
		<path fill="#3B4E35" d="M29.4,56.9C13.6,56.9,0.7,44.4,0.7,29c0-15.4,12.9-27.9,28.7-27.9S58.2,13.6,58.2,29
			C58.2,44.4,45.3,56.9,29.4,56.9z M29.4,4.9C15.7,4.9,4.5,15.7,4.5,29s11.2,24.1,24.9,24.1c13.8,0,24.9-10.8,24.9-24.1
			S43.2,4.9,29.4,4.9z"/>
	</g>
	<g>
		<polygon fill="#3B4E35" points="29.9,18.7 45,36.3 48.8,36.3 30,13.4 10.1,36.3 13.7,36.3 		"/>
		<polygon fill="#3B4E35" points="18.1,36.3 22.3,36.3 29.7,28.3 36.5,36.3 41.1,36.3 29.7,23.1 		"/>
	</g>
</g>
<g>
	<path fill="#3B4E35" d="M71.3,28.7L71.1,28H71v8.3h-2V21.6h1.9l2.1,7.7l0.2,0.7h0.1v-8.3h2v14.7h-1.9L71.3,28.7z"/>
	<path fill="#3B4E35" d="M76.5,36.4l2.2-14.7h2.6l2.2,14.7h-2.1l-0.4-3H79l-0.4,3H76.5z M80.2,26.4l-0.1-0.4H80l-0.1,0.4l-0.6,4.6
		h1.5L80.2,26.4z"/>
	<path fill="#3B4E35" d="M83.6,23.9v-2.2h6.2v2.2h-2v12.5h-2.2V23.9H83.6z"/>
	<path fill="#3B4E35" d="M90.9,21.6H93v14.7h-2.2V21.6z"/>
	<path fill="#3B4E35" d="M100.4,33.3c0,0.6-0.1,1.1-0.4,1.6c-0.2,0.4-0.5,0.8-0.9,1.1c-0.4,0.3-0.9,0.5-1.7,0.5
		c-0.7,0-1.3-0.2-1.7-0.5c-0.4-0.3-0.7-0.7-0.8-1.1c-0.2-0.5-0.3-1-0.4-1.6v-8.7c0-0.6,0.1-1.1,0.4-1.6c0.2-0.4,0.4-0.8,0.8-1.1
		s1-0.5,1.7-0.5c0.7,0,1.3,0.2,1.7,0.5s0.7,0.7,0.9,1.1c0.2,0.5,0.3,1,0.4,1.6V33.3z M98.3,24.7c0-0.4-0.1-0.7-0.3-0.9
		c-0.1-0.1-0.3-0.2-0.4-0.2c-0.4,0-0.6,0.3-0.6,0.5c-0.1,0.2-0.1,0.3-0.1,0.5v8.7c0,0.4,0.1,0.7,0.3,0.9c0.1,0.1,0.2,0.2,0.4,0.2
		c0.4,0,0.6-0.2,0.6-0.5c0.1-0.1,0.1-0.3,0.1-0.5V24.7z"/>
	<path fill="#3B4E35" d="M104.4,28.7l-0.2-0.7h-0.1v8.3h-2V21.6h1.9l2.1,7.7l0.2,0.7h0.1v-8.3h2v14.7h-1.9L104.4,28.7z"/>
	<path fill="#3B4E35" d="M109.6,36.4l2.2-14.7h2.6l2.2,14.7h-2.1l-0.4-3h-2.1l-0.4,3H109.6z M113.3,26.4l-0.1-0.4h-0.1l-0.1,0.4
		l-0.6,4.6h1.5L113.3,26.4z"/>
	<path fill="#3B4E35" d="M117.9,21.6h2.2v12.7h2.9v2h-5V21.6z"/>
	<path fill="#3B4E35" d="M127.3,21.6h2.2c0.9,0,1.9,0.2,2.6,0.9c0.7,0.7,1.2,1.8,1.2,3.5c0,1.7-0.5,2.8-1.2,3.5
		c-0.7,0.7-1.7,1-2.6,1v5.9h-2.2V21.6z M129.4,28.3c0.7,0,1.1-0.1,1.3-0.5c0.2-0.3,0.3-0.9,0.3-1.7c0-0.8-0.1-1.4-0.3-1.8
		c-0.2-0.4-0.7-0.5-1.3-0.5V28.3z"/>
	<path fill="#3B4E35" d="M133.9,36.4l2.2-14.7h2.6l2.2,14.7h-2.1l-0.4-3h-2.1l-0.4,3H133.9z M137.6,26.4l-0.1-0.4h-0.1l-0.1,0.4
		l-0.6,4.6h1.5L137.6,26.4z"/>
	<path fill="#3B4E35" d="M146,36.4l-1.1-6.2h-0.6v6.2h-2.2V21.6h2.2c2.6,0,3.7,1.5,3.7,4.2c0,1.5-0.4,2.8-1.2,3.3l1.4,7.1H146z
		 M144.3,28.1c0.3,0,0.7,0,1-0.3c0.3-0.3,0.6-0.8,0.6-1.9c0-1-0.3-1.6-0.6-1.9c-0.3-0.3-0.7-0.3-1-0.3V28.1z"/>
	<path fill="#3B4E35" d="M151.8,21.6v5.1h0.1l0.1-0.2l1.8-4.9h2.1l-2,4.8l2.2,9.9H154l-1.5-6.4l-0.1-0.3h-0.1l-0.1,0.3l-0.5,1.2v5.2
		h-2.2V21.6H151.8z"/>
	<path fill="#3B4E35" d="M164.2,25.6c0-0.5,0-1-0.2-1.4c-0.1-0.4-0.4-0.7-0.7-0.7c-0.6,0-0.7,0.6-0.7,1.5c0,0.5,0.2,1,0.5,1.6
		c0.3,0.6,0.7,1.1,1.2,1.8c0.5,0.7,1,1.5,1.4,2.2c0.4,0.7,0.6,1.5,0.6,2.3c0,1-0.2,1.9-0.6,2.6c-0.5,0.7-1.2,1.1-2.4,1.1
		c-1.4,0-2.2-0.5-2.6-1.3c-0.4-0.8-0.5-1.9-0.5-3l2.1-0.2c0,0.6,0,1.2,0.2,1.7c0.1,0.5,0.4,0.8,0.8,0.8c0.6,0,0.9-0.7,0.9-1.6
		c0-0.5-0.2-1-0.6-1.6c-0.2-0.3-0.4-0.6-0.6-0.9c-0.4-0.6-0.9-1.3-1.4-2s-0.8-1.5-1.1-2.3c-0.1-0.4-0.2-0.8-0.2-1.2
		c0-0.8,0.2-1.7,0.6-2.3c0.5-0.6,1.2-1.1,2.2-1.1c1.3,0,2.1,0.5,2.5,1.3c0.4,0.8,0.5,1.8,0.5,2.6L164.2,25.6z"/>
	<path fill="#3B4E35" d="M167.6,21.6h4.9v2.2h-2.8v3.9h2v2.4h-2v4h2.8v2.2h-4.9V21.6z"/>
	<path fill="#3B4E35" d="M177.8,36.4l-1.1-6.2h-0.6v6.2H174V21.6h2.2c2.6,0,3.7,1.5,3.7,4.2c0,1.5-0.4,2.8-1.2,3.3l1.4,7.1H177.8z
		 M176.1,28.1c0.3,0,0.7,0,1-0.3c0.3-0.3,0.6-0.8,0.6-1.9c0-1-0.3-1.6-0.6-1.9c-0.3-0.3-0.7-0.3-1-0.3V28.1z"/>
	<path fill="#3B4E35" d="M185.3,21.6h2.1l-2.2,14.7H183l-2.2-14.7h2.1l1.1,8.1l0.1,0.6h0.1l0.1-0.6L185.3,21.6z"/>
	<path fill="#3B4E35" d="M188.6,21.6h2.2v14.7h-2.2V21.6z"/>
	<path fill="#3B4E35" d="M198.2,31.3v2c0,0.6-0.1,1.1-0.4,1.6c-0.2,0.4-0.5,0.8-0.9,1.1c-0.4,0.3-0.9,0.5-1.7,0.5
		c-0.7,0-1.3-0.2-1.7-0.5c-0.4-0.3-0.7-0.7-0.8-1.1c-0.2-0.5-0.3-1-0.4-1.6v-8.7c0-0.6,0.1-1.1,0.4-1.6c0.2-0.4,0.4-0.8,0.8-1.1
		s1-0.5,1.7-0.5c0.7,0,1.3,0.2,1.7,0.5s0.7,0.7,0.9,1.1c0.2,0.5,0.3,1,0.4,1.6v2h-2v-2c0-0.4-0.1-0.7-0.3-0.9
		c-0.1-0.1-0.3-0.2-0.5-0.2c-0.4,0-0.6,0.3-0.7,0.5c-0.1,0.2-0.1,0.3-0.1,0.5v8.7c0,0.4,0.1,0.7,0.3,0.9c0.1,0.1,0.2,0.2,0.4,0.2
		c0.5,0,0.6-0.2,0.7-0.5c0.1-0.1,0.1-0.3,0.1-0.5v-2H198.2z"/>
	<path fill="#3B4E35" d="M199.7,21.6h4.9v2.2h-2.8v3.9h2v2.4h-2v4h2.8v2.2h-4.9V21.6z"/>
</g>
</svg>
