<?xml version="1.0" encoding="utf-8"?>
<!-- Generator: Adobe Illustrator 18.1.1, SVG Export Plug-In . SVG Version: 6.00 Build 0)  -->
<svg version="1.1" id="Layer_1" xmlns="http://www.w3.org/2000/svg" xmlns:xlink="http://www.w3.org/1999/xlink" x="0px" y="0px"
	 viewBox="0 0 206 59.6" enable-background="new 0 0 206 59.6" xml:space="preserve">
<g>
	<path fill="#3C4F36" d="M71.3,29.4l-0.2-0.7H71v8.3h-2V22.4H71l2.1,7.7l0.2,0.7h0.1v-8.3h2v14.7h-1.9L71.3,29.4z"/>
	<path fill="#3C4F36" d="M76.5,37.1l2.2-14.7h2.6l2.2,14.7h-2.1l-0.4-3H79l-0.4,3H76.5z M80.2,27.2l-0.1-0.4H80L80,27.2l-0.6,4.6
		h1.5L80.2,27.2z"/>
	<path fill="#3C4F36" d="M83.6,24.6v-2.2h6.2v2.2h-2v12.5h-2.2V24.6H83.6z"/>
	<path fill="#3C4F36" d="M90.9,22.4h2.2v14.7h-2.2V22.4z"/>
	<path fill="#3C4F36" d="M100.5,34.1c0,0.6-0.1,1.1-0.4,1.6c-0.2,0.4-0.5,0.8-0.9,1.1c-0.4,0.3-0.9,0.5-1.7,0.5
		c-0.7,0-1.3-0.2-1.7-0.5c-0.4-0.3-0.7-0.7-0.8-1.1c-0.2-0.5-0.3-1-0.4-1.6v-8.7c0-0.6,0.1-1.1,0.4-1.6c0.2-0.4,0.4-0.8,0.8-1.1
		s1-0.5,1.7-0.5c0.7,0,1.3,0.2,1.7,0.5s0.7,0.7,0.9,1.1c0.2,0.5,0.3,1,0.4,1.6V34.1z M98.3,25.4c0-0.4-0.1-0.7-0.3-0.9
		c-0.1-0.1-0.3-0.2-0.4-0.2c-0.4,0-0.6,0.3-0.6,0.5c-0.1,0.2-0.1,0.3-0.1,0.5v8.7c0,0.4,0.1,0.7,0.3,0.9c0.1,0.1,0.2,0.2,0.4,0.2
		c0.4,0,0.6-0.2,0.6-0.5c0.1-0.1,0.1-0.3,0.1-0.5V25.4z"/>
	<path fill="#3C4F36" d="M104.4,29.4l-0.2-0.7h-0.1v8.3h-2V22.4h1.9l2.1,7.7l0.2,0.7h0.1v-8.3h2v14.7h-1.9L104.4,29.4z"/>
	<path fill="#3C4F36" d="M109.6,37.1l2.2-14.7h2.6l2.2,14.7h-2.1l-0.4-3h-2.1l-0.4,3H109.6z M113.3,27.2l-0.1-0.4h-0.1l-0.1,0.4
		l-0.6,4.6h1.5L113.3,27.2z"/>
	<path fill="#3C4F36" d="M117.9,22.4h2.2v12.7h2.9v2h-5V22.4z"/>
	<path fill="#3C4F36" d="M127.3,22.4h2.2c0.9,0,1.9,0.2,2.6,0.9c0.7,0.7,1.2,1.8,1.2,3.5c0,1.7-0.5,2.8-1.2,3.5
		c-0.7,0.7-1.7,1-2.6,1v5.9h-2.2V22.4z M129.5,29c0.7,0,1.1-0.1,1.3-0.5c0.2-0.3,0.3-0.9,0.3-1.7c0-0.8-0.1-1.4-0.3-1.8
		c-0.2-0.4-0.7-0.5-1.3-0.5V29z"/>
	<path fill="#3C4F36" d="M133.9,37.1l2.2-14.7h2.6l2.2,14.7h-2.1l-0.4-3h-2.1l-0.4,3H133.9z M137.6,27.2l-0.1-0.4h-0.1l-0.1,0.4
		l-0.6,4.6h1.5L137.6,27.2z"/>
	<path fill="#3C4F36" d="M146.1,37.1l-1.1-6.2h-0.6v6.2h-2.2V22.4h2.2c2.6,0,3.7,1.5,3.7,4.2c0,1.5-0.4,2.8-1.2,3.3l1.4,7.1H146.1z
		 M144.4,28.9c0.3,0,0.7,0,1-0.3c0.3-0.3,0.6-0.8,0.6-1.9c0-1-0.3-1.6-0.6-1.9c-0.3-0.3-0.7-0.3-1-0.3V28.9z"/>
	<path fill="#3C4F36" d="M151.8,22.4v5.1h0.1l0.1-0.2l1.8-4.9h2.1l-2,4.8l2.2,9.9H154l-1.5-6.4l-0.1-0.3h-0.1l-0.1,0.3l-0.5,1.2v5.2
		h-2.2V22.4H151.8z"/>
	<path fill="#3C4F36" d="M164.2,26.3c0-0.5,0-1-0.2-1.4c-0.1-0.4-0.4-0.7-0.7-0.7c-0.6,0-0.7,0.6-0.7,1.5c0,0.5,0.2,1,0.5,1.6
		c0.3,0.6,0.7,1.1,1.2,1.8c0.5,0.7,1,1.5,1.4,2.2c0.4,0.7,0.6,1.5,0.6,2.3c0,1-0.2,1.9-0.6,2.6c-0.5,0.7-1.2,1.1-2.4,1.1
		c-1.4,0-2.2-0.5-2.6-1.3c-0.4-0.8-0.5-1.9-0.5-3l2.1-0.2c0,0.6,0,1.2,0.2,1.7c0.1,0.5,0.4,0.8,0.8,0.8c0.6,0,0.9-0.7,0.9-1.6
		c0-0.5-0.2-1-0.6-1.6c-0.2-0.3-0.4-0.6-0.6-0.9c-0.4-0.6-0.9-1.3-1.4-2s-0.8-1.5-1.1-2.3c-0.1-0.4-0.2-0.8-0.2-1.2
		c0-0.8,0.2-1.7,0.6-2.3c0.5-0.6,1.2-1.1,2.2-1.1c1.3,0,2.1,0.5,2.5,1.3c0.4,0.8,0.5,1.8,0.5,2.6L164.2,26.3z"/>
	<path fill="#3C4F36" d="M167.7,22.4h4.9v2.2h-2.8v3.9h2v2.4h-2v4h2.8v2.2h-4.9V22.4z"/>
	<path fill="#3C4F36" d="M177.9,37.1l-1.1-6.2h-0.6v6.2H174V22.4h2.2c2.6,0,3.7,1.5,3.7,4.2c0,1.5-0.4,2.8-1.2,3.3l1.4,7.1H177.9z
		 M176.2,28.9c0.3,0,0.7,0,1-0.3c0.3-0.3,0.6-0.8,0.6-1.9c0-1-0.3-1.6-0.6-1.9c-0.3-0.3-0.7-0.3-1-0.3V28.9z"/>
	<path fill="#3C4F36" d="M185.4,22.4h2.1l-2.2,14.7h-2.2l-2.2-14.7h2.1l1.1,8.1l0.1,0.6h0.1l0.1-0.6L185.4,22.4z"/>
	<path fill="#3C4F36" d="M188.6,22.4h2.2v14.7h-2.2V22.4z"/>
	<path fill="#3C4F36" d="M198.2,32v2c0,0.6-0.1,1.1-0.4,1.6c-0.2,0.4-0.5,0.8-0.9,1.1c-0.4,0.3-0.9,0.5-1.7,0.5
		c-0.7,0-1.3-0.2-1.7-0.5c-0.4-0.3-0.7-0.7-0.8-1.1c-0.2-0.5-0.3-1-0.4-1.6v-8.7c0-0.6,0.1-1.1,0.4-1.6c0.2-0.4,0.4-0.8,0.8-1.1
		s1-0.5,1.7-0.5c0.7,0,1.3,0.2,1.7,0.5s0.7,0.7,0.9,1.1c0.2,0.5,0.3,1,0.4,1.6v2h-2v-2c0-0.4-0.1-0.7-0.3-0.9
		c-0.1-0.1-0.3-0.2-0.5-0.2c-0.4,0-0.6,0.3-0.7,0.5c-0.1,0.2-0.1,0.3-0.1,0.5v8.7c0,0.4,0.1,0.7,0.3,0.9c0.1,0.1,0.2,0.2,0.4,0.2
		c0.5,0,0.6-0.2,0.7-0.5c0.1-0.1,0.1-0.3,0.1-0.5v-2H198.2z"/>
	<path fill="#3C4F36" d="M199.7,22.4h4.9v2.2h-2.8v3.9h2v2.4h-2v4h2.8v2.2h-4.9V22.4z"/>
</g>
<g>
	<path fill="#3C4F36" d="M30.3,57.7c-15.8,0-28.7-12.5-28.7-27.9c0-15.4,12.9-27.9,28.7-27.9s28.7,12.5,28.7,27.9
		C59.1,45.2,46.2,57.7,30.3,57.7z M30.3,5.7C16.6,5.7,5.4,16.5,5.4,29.8s11.2,24.1,24.9,24.1c13.8,0,24.9-10.8,24.9-24.1
		S44.1,5.7,30.3,5.7z"/>
</g>
<path fill="#3C4F36" d="M41.9,20.1C41.9,20.1,41.9,20.1,41.9,20.1c0.8,0,0.5,0.7,0.8,1.6c0,0.1,0.1,0.5,0.2,0.6
	c0.7,0.3,3.6,2.6,4.4,3.7c0.4,0.8-0.2,1.3-0.9,1.4c-2.5,0.1-5.9-0.1-7.7,2.5c-0.9,1.4-1.1,2.2-1.2,3.6c0,1.3,0.4,3.7,1.4,4.6
	c0.6,0.6,1.6,0.6,1.5,1.1c0,0.2-0.4,0.2-0.9,0.2c-0.8,0-1.9-0.2-2.5-0.2c-0.8-0.1-1.8-1.9-2.4-3c-0.1-0.2-0.3-0.2-0.4-0.2
	c-0.1,0-0.3,0.1-0.4,0.2c-0.4,0.4-0.8,1.2-0.6,1.7c0.1,0.3,1.3,0.4,1.2,0.9c-0.1,0.5-0.5,0.6-1,0.6c-0.9,0-2-0.5-2.4-0.7
	c-0.9-0.4-0.7-1.3-1.2-2.5c-0.3-0.7,1.4-2.4,1.7-3.8c0.1-0.4-0.2-0.5-0.7-0.5c-1.3,0-4.2,1-6.6,1.4c-0.2,0-0.4,0.2-0.5,0.3
	c-0.6,1.3-0.7,4-0.7,4.5c0,0.6,1.5,0.6,1.3,1.4c-0.1,0.1-0.4,0.1-0.7,0.1c-1,0-2.9-0.3-3.6-0.8c-0.6-0.6-0.1-2.3-0.5-3.9
	c-0.1-0.2-0.4-0.3-0.7-0.3c-0.1,0-0.2,0-0.3,0.1c-1,0.7-3,2.4-2.9,3c0.1,0.7,1.1,0.7,1,1.3c-0.1,0.3-0.4,0.5-0.7,0.5
	c-0.3,0-0.6-0.1-0.9-0.4c-0.7-0.6-1.3-1.2-1.5-2.7c0-0.2,0-0.3,0.1-0.5c0.4-1.1,1.8-2.3,2.8-4.3c0.9-1.7-0.1-3-0.1-4.6
	c0.1-1.6,1.8-6.2,6.3-6.2c0.1,0,0.1,0,0.2,0c1,0.1,7.8,1.3,9.2,1.3c0.1,0,0.1,0,0.2,0c1.4,0,6.1-0.2,7.4-0.2c0.2,0,0.3,0,0.3,0
	c0,0,0,0,0,0C40.3,21.8,41,20.1,41.9,20.1 M41.9,17.1c-1.6,0-2.6,0.9-3.2,1.7c-0.7,0-1.7,0-2.7,0.1c-1.4,0-3.1,0.1-3.7,0.1l-0.1,0
	c-0.6,0-3.7-0.5-5.4-0.8c-2.2-0.3-3.2-0.5-3.7-0.5l-0.1,0c-0.1,0-0.2,0-0.3,0c-6.3,0-9.2,5.9-9.3,9.1c0,1,0.1,1.8,0.3,2.4
	c0.2,0.8,0.2,0.9,0.1,1c-0.4,0.8-0.9,1.5-1.4,2.1c-0.6,0.8-1.2,1.5-1.5,2.5c-0.2,0.6-0.3,1.2-0.2,1.9c0.3,2.6,1.6,3.8,2.5,4.6
	c0.9,0.8,1.9,1.2,3,1.2c1,0,2-0.4,2.6-1c1.9,1.1,5,1.2,5.1,1.2c0.7,0,1.6-0.1,2.4-0.6l1.2-1.5c0.6-1.7-0.2-3-1.1-3.7
	c0-0.3,0.1-0.6,0.1-0.8c0.2,0,0.4-0.1,0.6-0.1c0,0.5,0,0.9,0.2,1.4c0.1,0.2,0.1,0.4,0.2,0.7c0.2,0.9,0.6,2.6,2.5,3.5
	c0.2,0.1,2.1,1,3.8,1c0.8,0,1.5-0.2,2.1-0.5c0.3,0.2,0.7,0.3,1.1,0.3l0.1,0c0.9,0.1,1.9,0.3,2.8,0.3c3.3,0,3.8-2.4,3.8-2.9
	c0.1-0.9,0-2.6-2.4-3.7c0,0,0,0,0,0c-0.2-0.5-0.4-1.6-0.4-2.3c0-0.8,0.1-1.1,0.7-2c0.7-1,2.4-1.2,4.6-1.2c0.2,0,0.5,0,0.7,0l0.4,0
	c1.4-0.2,2.6-1,3.2-2.1c0.6-1.1,0.6-2.4,0-3.6l-0.3-0.4c-0.8-1.1-2.7-2.7-4.2-3.8c-0.4-2.9-2.5-3.3-3.4-3.3L41.9,17.1L41.9,17.1z"/>
</svg>
