<?xml version="1.0" encoding="utf-8"?>
<!-- Generator: Adobe Illustrator 18.1.1, SVG Export Plug-In . SVG Version: 6.00 Build 0)  -->
<svg version="1.1" id="Layer_1" xmlns="http://www.w3.org/2000/svg" xmlns:xlink="http://www.w3.org/1999/xlink" x="0px" y="0px"
	 viewBox="0 0 94.3 59.3" enable-background="new 0 0 94.3 59.3" xml:space="preserve">
<g>
	<path fill="#3B4E35" d="M72.9,29.2l-0.2-0.7h-0.1v8.3h-2V22.2h1.9l2.1,7.7l0.2,0.7H75v-8.3h2v14.7H75L72.9,29.2z"/>
	<path fill="#3B4E35" d="M78.9,22.2h2.2c0.9,0,1.9,0.2,2.6,0.9c0.7,0.7,1.2,1.8,1.2,3.5c0,1.7-0.5,2.8-1.2,3.5c-0.7,0.7-1.7,1-2.6,1
		v5.9h-2.2V22.2z M81.1,28.8c0.7,0,1.1-0.1,1.3-0.5c0.2-0.3,0.3-0.9,0.3-1.7c0-0.8-0.1-1.4-0.3-1.8c-0.2-0.4-0.7-0.5-1.3-0.5V28.8z"
		/>
	<path fill="#3B4E35" d="M89.8,26.1c0-0.5,0-1-0.2-1.4c-0.1-0.4-0.4-0.7-0.7-0.7c-0.6,0-0.7,0.6-0.7,1.5c0,0.5,0.2,1,0.5,1.6
		c0.3,0.6,0.7,1.1,1.2,1.8c0.5,0.7,1,1.5,1.4,2.2c0.4,0.7,0.6,1.5,0.6,2.3c0,1-0.2,1.9-0.6,2.6c-0.5,0.7-1.2,1.1-2.4,1.1
		c-1.4,0-2.2-0.5-2.6-1.3c-0.4-0.8-0.5-1.9-0.5-3l2.1-0.2c0,0.6,0,1.2,0.2,1.7c0.1,0.5,0.4,0.8,0.8,0.8c0.6,0,0.9-0.7,0.9-1.6
		c0-0.5-0.2-1-0.6-1.6c-0.2-0.3-0.4-0.6-0.6-0.9c-0.4-0.6-0.9-1.3-1.4-2s-0.8-1.5-1.1-2.3c-0.1-0.4-0.2-0.8-0.2-1.2
		c0-0.8,0.2-1.7,0.6-2.3c0.5-0.6,1.2-1.1,2.2-1.1c1.3,0,2.1,0.5,2.5,1.3c0.4,0.8,0.5,1.8,0.5,2.6L89.8,26.1z"/>
</g>
<g>
	<path fill="#3C4F36" d="M31.7,57.4c-15.8,0-28.7-12.5-28.7-27.9c0-15.4,12.9-27.9,28.7-27.9s28.7,12.5,28.7,27.9
		C60.4,44.9,47.5,57.4,31.7,57.4z M31.7,5.3C17.9,5.3,6.7,16.2,6.7,29.5s11.2,24.1,24.9,24.1c13.8,0,24.9-10.8,24.9-24.1
		S45.4,5.3,31.7,5.3z"/>
</g>
<path fill="#3C4F36" d="M43.2,19.8C43.2,19.8,43.2,19.8,43.2,19.8c0.8,0,0.5,0.7,0.8,1.6c0,0.1,0.1,0.5,0.2,0.6
	c0.7,0.3,3.6,2.6,4.4,3.7c0.4,0.8-0.2,1.3-0.9,1.4c-2.5,0.1-5.9-0.1-7.7,2.5c-0.9,1.4-1.1,2.2-1.2,3.6c0,1.3,0.4,3.7,1.4,4.6
	c0.6,0.6,1.6,0.6,1.5,1.1c0,0.2-0.4,0.2-0.9,0.2c-0.8,0-1.9-0.2-2.5-0.2c-0.8-0.1-1.8-1.9-2.4-3c-0.1-0.2-0.3-0.2-0.4-0.2
	c-0.1,0-0.3,0.1-0.4,0.2c-0.4,0.4-0.8,1.2-0.6,1.7c0.1,0.3,1.3,0.4,1.2,0.9c-0.1,0.5-0.5,0.6-1,0.6c-0.9,0-2-0.5-2.4-0.7
	c-0.9-0.4-0.7-1.3-1.2-2.5c-0.3-0.7,1.4-2.4,1.7-3.8c0.1-0.4-0.2-0.5-0.7-0.5c-1.3,0-4.2,1-6.6,1.4c-0.2,0-0.4,0.2-0.5,0.3
	c-0.6,1.3-0.7,4-0.7,4.5c0,0.6,1.5,0.6,1.3,1.4c-0.1,0.1-0.4,0.1-0.7,0.1c-1,0-2.9-0.3-3.6-0.8c-0.6-0.6-0.1-2.3-0.5-3.9
	c-0.1-0.2-0.4-0.3-0.7-0.3c-0.1,0-0.2,0-0.3,0.1c-1,0.7-3,2.4-2.9,3c0.1,0.7,1.1,0.7,1,1.3c-0.1,0.3-0.4,0.5-0.7,0.5
	c-0.3,0-0.6-0.1-0.9-0.4c-0.7-0.6-1.3-1.2-1.5-2.7c0-0.2,0-0.3,0.1-0.5c0.4-1.1,1.8-2.3,2.8-4.3c0.9-1.7-0.1-3-0.1-4.6
	c0.1-1.6,1.8-6.2,6.3-6.2c0.1,0,0.1,0,0.2,0c1,0.1,7.8,1.3,9.2,1.3c0.1,0,0.1,0,0.2,0c1.4,0,6.1-0.2,7.4-0.2c0.2,0,0.3,0,0.3,0
	c0,0,0,0,0,0C41.6,21.4,42.4,19.8,43.2,19.8 M43.2,16.8c-1.6,0-2.6,0.9-3.2,1.7c-0.7,0-1.7,0-2.7,0.1c-1.4,0-3.1,0.1-3.7,0.1l-0.1,0
	c-0.6,0-3.7-0.5-5.4-0.8c-2.2-0.3-3.2-0.5-3.7-0.5l-0.1,0c-0.1,0-0.2,0-0.3,0c-6.3,0-9.2,5.9-9.3,9.1c0,1,0.1,1.8,0.3,2.4
	c0.2,0.8,0.2,0.9,0.1,1c-0.4,0.8-0.9,1.5-1.4,2.1c-0.6,0.8-1.2,1.5-1.5,2.5c-0.2,0.6-0.3,1.2-0.2,1.9c0.3,2.6,1.6,3.8,2.5,4.6
	c0.9,0.8,1.9,1.2,3,1.2c1,0,2-0.4,2.6-1c1.9,1.1,5,1.2,5.1,1.2c0.7,0,1.6-0.1,2.4-0.6l1.2-1.5c0.6-1.7-0.2-3-1.1-3.7
	c0-0.3,0.1-0.6,0.1-0.8c0.2,0,0.4-0.1,0.6-0.1c0,0.5,0,0.9,0.2,1.4c0.1,0.2,0.1,0.4,0.2,0.7c0.2,0.9,0.6,2.6,2.5,3.5
	c0.2,0.1,2.1,1,3.8,1c0.8,0,1.5-0.2,2.1-0.5c0.3,0.2,0.7,0.3,1.1,0.3l0.1,0c0.9,0.1,1.9,0.3,2.8,0.3c3.3,0,3.8-2.4,3.8-2.9
	c0.1-0.9,0-2.6-2.4-3.7c0,0,0,0,0,0c-0.2-0.5-0.4-1.6-0.4-2.3c0-0.8,0.1-1.1,0.7-2c0.7-1,2.4-1.2,4.6-1.2c0.2,0,0.5,0,0.7,0l0.4,0
	c1.4-0.2,2.6-1,3.2-2.1c0.6-1.1,0.6-2.4,0-3.6L51,23.9c-0.8-1.1-2.7-2.7-4.2-3.8c-0.4-2.9-2.5-3.3-3.4-3.3L43.2,16.8L43.2,16.8z"/>
</svg>
