<?xml version="1.0" encoding="utf-8"?>
<!-- Generator: Adobe Illustrator 18.1.1, SVG Export Plug-In . SVG Version: 6.00 Build 0)  -->
<svg version="1.1" id="Layer_1" xmlns="http://www.w3.org/2000/svg" xmlns:xlink="http://www.w3.org/1999/xlink" x="0px" y="0px"
	 viewBox="0 0 205.6 181.4" enable-background="new 0 0 205.6 181.4" xml:space="preserve">
<g>
	<path stroke="#FFFFFF" stroke-width="6" stroke-miterlimit="10" d="M193.7,157.2c-13.1-29.6-62.1-113.8-82.1-144.1
		c-1.8-2.7-4.7-4.3-7.9-4.3c-3.4,0-6.4,1.7-8.2,4.6C80.2,38.7,28.8,123.9,10.9,155.6c-1.6,2.8-1.6,6.2-0.2,9
		c1.5,2.9,4.3,4.8,7.5,5.1c18,1.9,56.1,3.2,94.6,3.2c32.6,0,59.3-0.9,73.2-2.5c3.1-0.3,5.7-2.1,7.2-4.7
		C194.8,163.1,194.9,160,193.7,157.2z M190.7,164.2c-1,1.8-2.8,3-4.9,3.2c-13.8,1.6-40.3,2.5-72.8,2.5c-38.5,0-76.4-1.3-94.3-3.2
		c-2.2-0.2-4.1-1.5-5.1-3.5c-1-2-1-4.2,0.1-6.2C31.4,125.4,82.8,40.3,98.1,14.9c1.2-2,3.3-3.2,5.6-3.2c2.2,0,4.2,1.1,5.4,2.9
		c19.4,29.5,69.1,114.8,81.8,143.7C191.8,160.3,191.7,162.4,190.7,164.2z"/>
	<path stroke="#FFFFFF" stroke-width="6" stroke-miterlimit="10" d="M104.4,130.8L104.4,130.8c3.9,0,7-3,7.1-6.9l3-74.2
		c0.1-2-0.6-3.8-2-5.2s-3.2-2.2-5.2-2.2h-6.7c-2,0-3.8,0.8-5.2,2.2c-1.4,1.4-2.1,3.3-2,5.3l3.8,74.2
		C97.5,127.9,100.6,130.8,104.4,130.8z M97.7,46.7c0.8-0.8,1.9-1.3,3-1.3h6.7c1.1,0,2.2,0.5,3,1.3c0.8,0.8,1.2,1.9,1.2,3l-3,74.2
		c-0.1,2.2-1.9,4-4.1,4l0,1.5v-1.5c-2.2,0-4-1.7-4.1-3.9l-3.8-74.2C96.5,48.6,96.9,47.5,97.7,46.7z"/>
	<path stroke="#FFFFFF" stroke-width="6" stroke-miterlimit="10" d="M107.4,139.3l-5.4,0c-3.8,0-6.9,3-7.1,6.8l-0.3,5.7
		c-0.1,2,0.6,3.8,2,5.3c1.4,1.4,3.2,2.2,5.2,2.2h5.7c1.9,0,3.7-0.8,5.1-2.1c1.4-1.4,2.1-3.2,2.1-5.1l0-5.8
		C114.6,142.5,111.4,139.3,107.4,139.3z M110.5,155.2c-0.8,0.8-1.8,1.2-2.9,1.2h-5.7c-1.1,0-2.2-0.5-3-1.3c-0.8-0.8-1.2-1.9-1.1-3.1
		l0.3-5.7c0.1-2.2,1.9-3.9,4.1-3.9l5.5,0c2.3,0,4.1,1.8,4.1,4.1l0,5.8C111.7,153.3,111.3,154.4,110.5,155.2z"/>
</g>
</svg>
