<?xml version="1.0" encoding="utf-8"?>
<!-- Generator: Adobe Illustrator 18.1.1, SVG Export Plug-In . SVG Version: 6.00 Build 0)  -->
<svg version="1.1" id="Layer_1" xmlns="http://www.w3.org/2000/svg" xmlns:xlink="http://www.w3.org/1999/xlink" x="0px" y="0px"
	 viewBox="0 0 200 200" enable-background="new 0 0 200 200" xml:space="preserve">
<g>
	<path fill="#FFFFFF" d="M44.1,62.1c-0.7-0.7-1.7-0.7-2.3-0.1c-0.8,0.7-0.8,1.7-0.1,2.3l27.7,29.2c0.3,0.3,0.8,0.6,1.2,0.6
		c0.4,0,0.8-0.1,1.1-0.4c0.7-0.7,0.7-1.7,0.1-2.3L44.1,62.1z"/>
	<path fill="#FFFFFF" d="M65.9,95.8L31.3,75.4c-0.8-0.4-1.8-0.2-2.3,0.6c-0.4,0.8-0.2,1.8,0.6,2.3l34.6,20.5
		c0.2,0.1,0.6,0.2,0.9,0.2c0.6,0,1.1-0.3,1.4-0.8C67,97.3,66.6,96.3,65.9,95.8z"/>
	<path fill="#FFFFFF" d="M61.5,101.5L23.2,89.3c-0.9-0.2-1.8,0.2-2.1,1.1c-0.2,0.9,0.2,1.8,1.1,2.1l38.3,12.2c0.2,0,0.3,0.1,0.6,0.1
		c0.7,0,1.3-0.4,1.5-1.1C62.9,102.7,62.4,101.7,61.5,101.5z"/>
	<path fill="#FFFFFF" d="M77.1,129.4c-0.3-0.9-1.2-1.3-2.1-1.1l-38.2,12.6c-0.9,0.3-1.3,1.2-1.1,2.1c0.2,0.7,0.9,1.1,1.5,1.1
		c0.2,0,0.3,0,0.6-0.1L76,131.4C76.9,131.3,77.5,130.3,77.1,129.4z"/>
	<path fill="#FFFFFF" d="M79,135.9c-0.6-0.8-1.5-1-2.3-0.4l-33.2,22.6c-0.8,0.6-1,1.5-0.4,2.3c0.3,0.4,0.9,0.8,1.3,0.8
		c0.3,0,0.7-0.1,0.9-0.3l33.2-22.6C79.4,137.7,79.6,136.7,79,135.9z"/>
	<path fill="#FFFFFF" d="M80,141.9l-27.2,29.6c-0.7,0.7-0.6,1.8,0.1,2.3c0.3,0.3,0.8,0.4,1.1,0.4c0.4,0,0.9-0.2,1.2-0.6l27.2-29.6
		c0.7-0.7,0.6-1.8-0.1-2.3C81.7,141.1,80.6,141.1,80,141.9z"/>
	<path fill="#FFFFFF" d="M123.7,176c0.2,0.8,0.9,1.3,1.7,1.3c0.1,0,0.2,0,0.3,0c0.9-0.2,1.4-1.1,1.2-2l-8.7-39.2
		c-0.2-0.9-1.1-1.4-2-1.2s-1.4,1.1-1.2,2L123.7,176z"/>
	<path fill="#FFFFFF" d="M141.4,171.1c0.3,0.6,0.9,0.9,1.4,0.9c0.2,0,0.6-0.1,0.8-0.2c0.8-0.4,1.1-1.4,0.7-2.2l-19.3-35.3
		c-0.4-0.8-1.4-1.1-2.2-0.7c-0.8,0.4-1.1,1.4-0.7,2.2L141.4,171.1z"/>
	<path fill="#FFFFFF" d="M155.6,163.3c0.3,0.3,0.8,0.6,1.2,0.6c0.4,0,0.8-0.1,1.1-0.4c0.7-0.7,0.8-1.7,0.1-2.3l-26.7-30
		c-0.7-0.7-1.7-0.8-2.3-0.1c-0.7,0.7-0.8,1.7-0.1,2.3L155.6,163.3z"/>
	<path fill="#FFFFFF" d="M125.4,37.4c-0.8-0.4-1.8-0.2-2.3,0.6l-20.8,34.3c-0.4,0.8-0.2,1.8,0.6,2.3c0.2,0.1,0.6,0.2,0.9,0.2
		c0.6,0,1.1-0.3,1.4-0.8L126,39.6C126.4,38.8,126.2,37.9,125.4,37.4z"/>
	<path fill="#FFFFFF" d="M108.6,28.9c-0.9-0.2-1.8,0.3-2,1.2L96.1,68.8c-0.2,0.9,0.3,1.8,1.2,2c0.1,0,0.3,0.1,0.4,0.1
		c0.8,0,1.4-0.4,1.5-1.2L109.8,31C110,30.1,109.5,29.1,108.6,28.9z"/>
	<path fill="#FFFFFF" d="M92.5,25.1c-0.9,0-1.7,0.7-1.8,1.5l-1.5,40.2c0,0.9,0.7,1.7,1.5,1.8c0,0,0,0,0.1,0c0.9,0,1.7-0.7,1.7-1.5
		l1.5-40.2C94.1,25.9,93.4,25.1,92.5,25.1z"/>
	<path fill="#FFFFFF" d="M192,72.6c-3.7-5.2-9.9-8.1-18.5-8.3c-15.8-0.4-37.7,8.1-51.7,15.6c12.2-14.7,15.5-28.4,15.8-38
		c0.4-11.1-2.9-21.5-9-27.8C118.5,3.5,105.4,1,90.5,6.6C84.8,8.9,80.5,13.9,78,21.8c-5,15.5-2.2,39.1,1.2,54.6
		C68.3,60.4,56.6,53.8,47.8,51C38,47.9,27.6,48.5,20,52.6C7.3,59.4,1.2,71.5,2.8,87.2c0.6,5.5,3.7,10.4,9.2,14.5
		c11.5,8.5,32,12.4,48,13.9c-15.6,4-25.5,11.3-31.3,17.6c-7.2,7.7-11.2,17.2-10.7,25.2c0.8,14.6,9.2,25.2,24.1,30.5
		c1.8,0.7,3.5,1,5.4,1c4.2,0,8.7-1.5,13.4-4.8c15.5-10.4,30.1-35.7,36.6-50.8c0.7,25.2,11,40.7,17.5,48.1
		c7.5,8.4,16.5,13.6,24.1,13.9c0.6,0,1.2,0,1.8,0c13.8,0,24.5-7.2,31-21c7.9-16.7-14.6-38.1-33.1-52.1c7.7,2.5,14.6,3.4,20.6,3.4
		c4.1,0,7.7-0.4,11-1.1c10.3-2.1,19.1-7.4,23.5-14.3C201.8,99.1,201.1,85.7,192,72.6z M191,109.7c-3.9,6.1-11.8,10.8-21.3,12.8
		c-13.7,2.9-29.4-0.4-45.2-9.2c-4.4-2.9-7.3-4.5-7.4-4.6c-0.1,0-0.2-0.1-0.3-0.1c-0.1-0.1-0.2-0.1-0.3-0.2c-0.8-0.6-1.8-0.3-2.3,0.4
		c-0.6,0.8-0.3,1.8,0.4,2.3c3.3,2.2,6.5,4.2,9.6,5.9c17.8,11.8,53.2,39.2,44.7,57.1c-6.2,13.3-16.2,19.7-29.6,19
		c-6.6-0.3-15.1-5.2-21.8-12.8c-7.1-8-18.7-26-16.4-56.6l0,0l0,0v-0.1v-0.1c0-0.1,0-0.1,0-0.1v-0.1c0,0,0-0.1-0.1-0.1
		c0,0,0-0.1-0.1-0.1l-0.1-0.1l-0.1-0.1l-0.1-0.1l-0.1-0.1l-0.1-0.1l-0.1-0.1c0,0-0.1,0-0.1-0.1c0,0-0.1,0-0.1-0.1h-0.1h-0.1l0,0l0,0
		h-0.1c-0.1,0-0.1,0-0.2,0s-0.1,0-0.2,0.1c0,0,0,0-0.1,0c-0.4,0.1-0.8,0.4-0.9,0.8l0,0c0,0.1-0.1,0.1-0.1,0.2v0.1c0,0.1,0,0.1,0,0.2
		v0.1l0,0l0,0c-0.3,6.3-19.1,45.8-38.7,58.9c-5.9,4-11.3,5.1-15.9,3.4c-14.1-5.1-21.5-14.4-22.2-27.8c-0.4-7.2,3.3-15.7,9.9-22.8
		c7.2-7.7,20.7-17,44.6-19c3.4,0,6-0.1,7.2-0.4l0,0c0.1,0,0.1,0,0.2-0.1h0.1c0,0,0.1,0,0.1-0.1c0,0,0.1,0,0.1-0.1l0.1-0.1l0.1-0.1
		l0.1-0.1l0.1-0.1c0,0,0-0.1,0.1-0.1c0,0,0-0.1,0.1-0.1v-0.1c0-0.1,0-0.1,0-0.2v-0.1c0-0.1,0-0.1,0-0.2l0,0v-0.1v-0.1l0,0
		c0-0.1,0-0.1-0.1-0.2v-0.1c0-0.1-0.1-0.1-0.1-0.1s0-0.1-0.1-0.1c0-0.1-0.1-0.1-0.2-0.2l0,0c-0.3-0.3-0.7-0.4-1.1-0.4l0,0
		c-2.7,0.1-5.2,0.2-7.6,0.4c-14.7,0-45.9-2.9-61-14.1c-4.8-3.5-7.4-7.6-7.9-12.2C4.6,72.4,10,61.8,21.8,55.3
		C28.6,51.7,38,51.2,47,54c10,3.2,24.2,11.8,36.3,35.2c0.3,0.7,0.6,1.2,0.9,1.5l0,0c0.1,0.1,0.1,0.2,0.2,0.2l0,0
		c0.1,0.1,0.2,0.1,0.3,0.2c0,0,0,0,0.1,0s0.2,0.1,0.2,0.1h0.1c0.1,0,0.2,0,0.2,0s0,0,0.1,0l0,0c0.1,0,0.3,0,0.4-0.1c0,0,0,0,0.1,0
		c0.1,0,0.1,0,0.2-0.1c0,0,0.1,0,0.1-0.1c0,0,0,0,0.1,0l0,0l0.1-0.1l0.1-0.1l0.1-0.1l0.1-0.1c0,0,0-0.1,0.1-0.1c0,0,0-0.1,0.1-0.1
		v-0.1v-0.1V90v-0.1v-0.1v-0.1v-0.1c0,0,0-0.1-0.1-0.1c0,0,0,0,0-0.1c-0.4-0.7-0.8-1.2-1.1-1.8c-3.9-9.2-11.2-44.7-4.8-64.6
		C83.5,16,87,11.6,91.8,9.9c13.8-5.3,25.5-3.1,34.6,6.6c4.2,4.3,8.4,13.3,8,25.3c-0.4,11-4.9,27.4-23.5,44.9c-1,0.8-1.8,1.4-2.2,2.1
		c-0.1,0.1-0.1,0.2-0.2,0.3l0,0c0,0.1,0,0.2,0,0.4l0,0c0,0.2,0,0.4,0.1,0.6l0,0c0.1,0.2,0.2,0.3,0.3,0.6l0,0l0,0
		c0.1,0.1,0.1,0.1,0.2,0.2s0.2,0.1,0.3,0.2l0,0c0.2,0.1,0.3,0.1,0.6,0.1l0,0c0.2,0,0.4,0,0.6-0.1l0,0c0.2-0.1,0.3-0.2,0.6-0.3l0,0
		c0.7-0.7,1.4-1.2,2.1-1.9c8.4-6.4,39.4-22.1,60.2-21.5c7.5,0.2,12.8,2.5,15.8,6.9C197.7,86.6,198.2,98.4,191,109.7z"/>
	<path fill="#FFFFFF" d="M169.5,111.6l-38.4-12c-0.9-0.2-1.8,0.2-2.1,1.1c-0.3,0.9,0.2,1.8,1.1,2.1l38.4,12c0.1,0,0.3,0.1,0.4,0.1
		c0.7,0,1.3-0.4,1.5-1.2C170.8,112.8,170.2,111.8,169.5,111.6z"/>
	<path fill="#FFFFFF" d="M173.1,93.6l-40.2-1c-1,0-1.7,0.7-1.7,1.7c0,0.9,0.7,1.7,1.7,1.7l40.2,1l0,0c0.9,0,1.7-0.7,1.7-1.7
		C174.8,94.4,174,93.6,173.1,93.6z"/>
	<path fill="#FFFFFF" d="M133.6,88.9c0.1,0,0.2,0,0.3,0l39.4-8.2c0.9-0.2,1.4-1.1,1.3-2c-0.2-0.9-1.1-1.4-2-1.3l-39.4,8.2
		c-0.9,0.2-1.4,1.1-1.3,2C132,88.4,132.8,88.9,133.6,88.9z"/>
</g>
</svg>
